<svg version="1" id="Bundesrepublik_Deutschland" xmlns="http://www.w3.org/2000/svg" width="592" height="801" overflow="visible">
  <g fill="white" fill-opacity="0.25" stroke="none">
    <path id="Thüringen" d="M312 352l2-1 3 1h5v1l2 2 2-1-2 2v2l1 3 2 3 2 3 1 1-1 2v3h1l1 1h3l7 2h11l5 1v4l2 1-1 1h1l1 1 2 2v1l-1 1-2 2v2h-1l-1 1v-1h-1l-1 1v1l2 1h3l2 2 1 2v1l-1 1-1 1 1 3v1h5l1-1v-1h1l6 1 2 1v3l5 2h5l2-1 4 3 2 1 3 3v2h1l3-1h1l3 1 1 1v-1h1v-1h1l1 2v1l1 1v-1h1v-1l3-7h1v-1h-1v-1l-2-1v-1l2-3 3-1 8 2 2 1h1v5l3 2 2 1 3 1v1l1 2v2h1l-1 2-2 1h-4l-4 1-1 1v1l-1 3-2 1v-1h-3l-1 1v1l-5 2h-1l-1-1v1l-1 5v2l3 5 3 1v2l-1 1-2 2-2 1-4 1-3 2h-1v1h3v1h-1l-2 1h-6v-6l-1-1-2 2-2 3h-1l-3 5v2l1 1h1l1-1v1l2 2 1 1h-1l-1 2-2 1h-1v1l1 1 1 1-3 1-4 2-12 1h-1l-1-1h-2v1l-1 1h-2l-2-2v-1l-1-2h-2l-2-1v-5h1v-2l-1-1h-5l-1 1v1l-2 2h-3v3l1 1v1l1 7-2 7-3 1-1 2h-1l-2-2v-1l-1-1h1v-1l1-1-1-3-2-1h-1l-1 1-1 1h-5l-2-2-1-2h-7l-8 3v4h1l5 4h1l1 1h1v3h-5l-2-1h-1v5h-1l-5-2h-2v-2l-1-3v-3l1-3-3-1-4-1-3-3v-2h-1l-1 1-2-1h-1v-3l-2-5-1-1-5-2-2-2-1-3h-1l-7 1-1 2-1 1h-1v-11l2-1v-2l-1-2h-4l-3 1v1l1 1v2h-2l-4-1v-4h1v-1l2-2 1-2v-3l-1-2h2v-5l1-1h4v-1l2-4v-1l-1-6-1-5v-2h3l2 1h2v1h3l1-1h1l-1-1 1-1v-1l-1-1h-1l-2-1v-4l-1-2-1-3 3-1 1 1v1l1 1v1h1v-3l-1-1 1-1v-1h1v-2h-1l-2-1v-1h-1l-2-1-4-2-1-3-2-1-3-1-2-2-1-3-1-2v-2h1l3-2 7-4 5-1 8-6 3-2 2-2v-3l1-2h4l1 1h1l1 1 1 1v1l3-1 4-1 1-2 2-5h2z"/>
    <path id="Schleswig-Holstein" d="M322 114l1 3-1 2h-3l-5 4-1 2v2l1 2v7l3 3 2 1h4l2 2v4l-1 2v2l-7 9-2 2-1 1v1l-4 3-2-1h-1l-1 1v1l-2 8h-1l-5-1-1-1h-1l-2-1-6-3-2-1v-1l-4-4v-1h-1l-4-3-1-3v-2l1-1 2-2 2-3v-1l-2-2-1-1v-4l1-2v-1h-2l-4 2-1 1-1 2-5 4h-2l-1-1-1 1h-1l1 1h-1v1l-4 4v1l-1-1-1-1-2-2v-1l-1 3-1 2v2h-4l-5-4-2-2h-1v-4l-1-1v-1l-1-2-1-1-2-2-1-1-1-1-1-1v-2l-2-4-1-1-2-3-2-1-3-2h-13v-3h-1l-1 1h-1l-1-1-2-1-1-2-1-1v-2l-1-3-2-3h-1l1-2h5v1h3v-1h1v-2l-3-7h-1l-1-1-1 1-1 1-1-1h-1l-1-1-1-3v-1l1-1 1-2v-2l1-3v-2l-1-1v-1h-5l-3 1-1 1h1v1h-1l-5-3-1-1v-4h1v-1h1v1h2l3-1v-5l7-1h1l2 1h1l1-1h1l5-5h1v-4l-1-2-6-9-3-5h-2l-1-1-2-1v-1l-2-6-1-3-1-2-2-3-2-2v-4l2-4 1 1h1l2 1 5-1h6l3 1h1l3 1 1 1 1 1h6l3 1 2 1v3l1 1 4 1h1l2-2 3-1 1 1 1-1h2v-1l6-4h2v1l-1 2 4 2 3 1 6 7h1l1 1h1v-1l2-3h-1l1-1 1 1 2 1 1 2 3 10v11l-2 3-1 1-1 1-1 1-3 1-2 1h-2l1 2h1v1h2l1-1 2-1h1l5-1 4-1h1l2 1v1l2 1-1 1-1 1v1l1 4-1 1-1 1v1l2 1v-1l2-5 1-1 4-2h4l1 1 13 6 1 1 1 1 1 1 2 3h6l1-1 2-1 1-1 1-1 1-2 3-2h9v13l1 6-3 2v1l-4 2-3 3-2 3h-1v1h-1l-2-1h-1l-3 3v5l1 1 1 1h5v1h1v3h1zM168 10l-1 3-1 3v6l-1 9v2h1V22l1-1 2-2 1 1 1 1 2 1 3-2 2-1h-4l-2-2-2-2V9l1-2V6h2l1-1h1l2-4h-1l-2-1h-1v1h-1l-2 5v1l-2 3zm9 22h-3l-1 1-1 1v3l4 2h6l2-4-1-2-1-1h-1v-1h-1l-1 1h-2zm-11 9v1l1 2 1 1 1 1h1l2-1v-1h-1l-1-2-2-3v-2h1l1-1h-1l-2 2-1 1v2zm17 3l4-1 1-1v-1l-7 3h-1v1l1 1 2-2zm-4 6h-1 1l1 2h2v-1l-1-1h-2zm5 8l1 1h2l1-1 1-3 1-1v-2h-1l-3 1-3 1v3h1v1zm15-2l-3 2v3l1 1h4l1-1 1-1 1-2v-2h-5zm133-1h-1v-1 1l-1 1h-1v1l-1 2v1l-1 3 1 1 1 1h1-2v-1h1l2-1h1l1 1v3l5 1h8v-1l-1-2-1-3-4-4-3-2-5-1zm-144 50v-1h-1v-2h2v3h-1zm-47-16h1l-1 2h-1l-1-2 1-1 1 1z"/>
    <path id="Sachsen-Anhalt" d="M366 208l1-1h2v1l-1 1v2l4 2v1h1l1-1 1-1v1h1l5 3h1v1l-1 1-1 1v1h1l4 2 5 2 9-1v-1 2l1 1h1l1-1h3l1 1 1 5v2l-1 1-1 1v1l-1 4v1l1 2 2 1v2l-1 4-1 1h-1l-1 1-2 7v1l2 2 1 1h2l1-1v-1l5 2 1 3-1 1v1l-1 3v1l1 3v3l-1 3-1 3-1 1v7l-2 5 3 3 2 4 3 3 1 2 5 3 7 3h5l2-1v-2h1l2 1h1l1 1 2 1h1v1l5 3 2 1h2l5 2 3 3 3 1 2-1v-1h1l1 1v1l-1 1 3 12h1v2l-1 2-1 1-6 4-2 1h-18v-1h-4v1l-1 2-1 1h-1l-1 1-2-1v1l-2 1-8 2h-6l-5 3-3 3v2l-3 6 1 1 1 4 1 6v2h-1l-2 1 2 4 1 2v2h1v10h2v1h1v1h-1l2 2 2 1-2 3v1l2 1v1h1l-1 1-3 7v1h-1v1l-1-1v-1l-1-2h-1v1h-1v1l-1-1-3-1h-1l-3 1h-1v-1l-3-4-2-1-4-2v-1l-2 1h-5l-5-2v-2l-1-1-1-1-6-1h-1v1l-1 1h-5v-1l-1-3h1v-1l1-1v-1l-1-2-2-2h-3l-2-1v-1l1-1h1v1l1-1h1v-2l2-2 1-1v-1l-2-2-1-1h-1l1-1-2-1v-4l-5-1h-11l-7-2h-3l-1-1h-1v-6l-2-3-2-3-1-3v-2l2-2-2 1-2-2v-1h-5l-3-1-2 1-1-1-1-2v-3l-1-2-3-5h-1l-1-2v-7l2-2h1l1-2h1v-1h-1v-1l-1-1h-1v-2l1-1h1l-4-3-1-2 4-1 2-2v-1l2-1h10v-1h7l1-3v-2l2-2 2-1 1-2v-2h-2l-1-1v-1l1-1v-1l1-1h2l1-1-1-1-1-2-2-1-1-2-1-4 2-2h2v-3l-1-1h-1l-1-1-4-6-1-2v-1l3-1h1l-1-2-2-2v-1l-1-1v-4l-3-5-3-6-3-1-3-8 1-1-1-2 1-2 2-1 3-1h6l2-3h1v-3h1l9 1h4l1 1v1h1l3 1 1-1 6-2v-1l1-1 1-1 1-1h3l-1-2v-3l1-1v-1h1l1 1h1l2-4z"/>
    <path id="Sachsen" d="M462 347l2 4h2v-1l3 2v1l2 4 1 2v7l-1 4 2 2v1h3v-1h2v-1l2-3 5-2h1l2 3 2 1 5 3 3 1h6v-1 1h2l3 1 1-1 2-1h4l8-2 3-3 1-6 1-4 3-3v-1l1 1h7l3 1 5-2 3-1v-1h1l7-3 2 1v1l1 1h4v-1h1v-3l1-1 1 1-1 2 1 3 1 1h1l1 1h2l8 3 2 1 2 3v4l5 10v5l-1 3v1l-2 15v1l-1 1-1 3v1l-1 4-1 3v1l-2 2-1 1-1 3-1 3v3h-5l-5-2-2-1v-1l1-2-1-4-2-6-2-2-5-4h-1l1 1v1l-5 1h-1l-4-2h-1l-1-1h-1l-1 1-1 6 3 3h1l4 1h1v4l-6 2-11 6-2 1-1 1-1 1-8 2h-1l-2 1h1v4h-1l-2 2h-3l-2-1-7 1h-1l-7 5v1l-2 4-1 1-2 2-4-1-2-1-6 5-3 4-2 5h-1l-3-1-6 1h-1v7l-2 2h-1l-2 2v-1l-3-1-5-3-6 3-3 2h-1l-5 1-5 1-7 9-2 3-2 4-1 1v3h1v3h-3l-1-2 1-1v-2l-6-9-1-1h-5l-1 1v-1l-2-1-5-1h-1v-4l-2-3-1-1h-1l-1-1-1-1 1-1 2-1 1-2h1l-1-1-2-2h-2l-1-1v-2l3-4v-1h1l2-2v-1l2-1v-1l1 1v6h6l2-1h1v-1h-1v1l-2-1v-1h1l3-2 4-1 2-1 2-2 1-1v-2h-3v-1l-3-5v-2l1-5v-1l1 1h1l5-2v-1l1-1h3v1l2-1 1-2v-2l1-1 4-1h4l2-1 1-1v-1h-1v-1l-1-3v-1l-3-1-2-1-3-2v-5h-1l-2-1-8-2-3 1-2-1-2-2h1v-1h-1l-2-1v-10l-1-2-1-2-2-4 2-1h1v-2l-1-5v-1l-1-4-1-1 3-5v-3l3-3 6-3h5l8-2 2-1v-1l2 1 1-1h1l1-1 1-2v-1h4v1h18l2-1z"/>
    <path id="Saarland" d="M26 560v1l7 2h6l7-1 4-1 1-1h1l1-1 1-1 1-1 3-1 2-1 3-2h1l2 1h1v1l1-1h1v-1l3 2 3 3 6 3h2l1-1h1v1l1 1v6l-1 5h-1l-1 1v1h1l2 2v2l5 3h2l-1 5h1l-1 2v1l-1 1-2 1-3 2-1 1v1l1 3 1 1 2 3h1v1l-5 3v1l-1-1h-1l-1-1h-5l-1 1-1-1-2-1-1-2v2l-2 2h-1l-1-1v-3l-1-2h1l-2-2-2-2-2-1h-2l-4-1-1 1v1l1 1v2l-1 2h-1l-6-1-1-1-1-2 2-1-1-2-2-1v-2l-1-3-2-2-2-1-1-1v-1l-2-2-1-6v-2h1l-1-1-5-4h-6l-1-7h1l1-2z"/>
    <path id="Rheinland-Pfalz" d="M145 448l-1 1v2l1 5 1 1h1v1l-1 1v2h-1v2l-1 1h-1l-2-1v-1h-3l-2 3v1l-1 2v1l1 1v1l-1 5-1 1h1l5 3 3 5v1l1 2v2l-2 1h-2l-1-1-1 1-1 1 2 2h1v1l-2 1h-1l-2-1-5 2v1l-2 2v2h2l1 1v1l-1 3-2-1h-1l-4 4-2 1h-1l1 2 5 8h7l7-3 4-2 3-1h2l2 1 1 1 1 1h1v2l2 1v1h1v1l1 1v6h-1v1l1 1 2 5v1l1 1 1 1 2 3 1 2-1 1v1l-1 1h-1l-1 1h-2l-1 1v2l2 5v1l2 3v3h-1v1h1v1l1 4v1l1 3h-1v2h4v8l-1 1v1h-1v1h-1v1h-1v1h1v1h2v2l-2 1-1 2h-1l-1 1h-1v1h-1v4l-2 10v1h-1l-1 1-1 1v1l-1 1v4h-1v2h-1l-1 1-2 2v-1h-1l-3-1-1 1-1-1-3-1-2-1-1-1-5-3-4-1h-2l-5-1-3 1h-6l-3-1-5-3-1-1-1-1-2-4v-3l-3-2h-3l-2 1h-1v1h-1l-2-3-1-1-1-3v-1l1-1 3-2 1-1h1v-1h1l1-3h-1l1-5h-2l-5-3v-2l-2-2h-1v-1l1-1h1l1-5v-6l-1-1v-1h-1l-1 1h-2l-6-3-3-3-3-2v1h-1l-1 1v-1h-1l-2-1h-1l-3 2-2 1-3 1-1 1-1 1-1 1h-1l-1 1-4 1-7 1h-6l-7-2v-1l-2-2h1l1-2v-1h2l1-1 6-10 1-5v-1l-1-4-2-1-1 1h-2l-1-1h-1l-3-4-5-3-2-2-3-6-1-1-1-3-2-6v-3l2-8 3-2v-5l7-5 1-1 1-3h1l2 1 3-1h2l-1-1v-1h-1v-3l-1-1h2l2 1v1l1 1 5-1 5-2 1 2 4 1 3 1 3-1h1v1-2l-1-2-1-6 4-2v1l2 1h1l3-1 1-8 1-1h3l1-1 2-1v-1l3-1 5-1h2l1-1v-2l1-1h1v2l-1 1h3l2-1h1l3-1h1v-1l1-2v-4h6l13-5 1-2 1-1v-1l-1-1h-1 1l2-1 2-2 2-2-1-5 3-2v-1l2 1 2 1-1 1v1l-1 1v2h3l1 1 5 2v1l1 1v3l-1 1v2h1v2l2 1 1 2h1v3l2-1h2v1l1 1z"/>
    <path id="Nordrhein-Westfalen" d="M232 351l-2 2-4 5-3 5-4 3-5 4v1l-1 1h-4v-1l-1-1 1-2-1-2-3-1h-4l-1 1-3 1-1 1v1l3 4h1v2l-1 2h-8l-3 1-5 2-3 2h-1l-1 2-3 3-1 1 2 3h1l1 1v-1h1l4-2h2l1 1 1 7v3l-3 6-3 1h-3l-2-1h-2l-2 1h-1v1h-1v1l2 3v2l1 1h-1v1l-1 1-2 1-1 1 1 1h-2v3l-5 6-1 1v1h-1l-4-3h-1v1l-10 9 1 1v1l1 1 1 1v2l-2 3-1 1-1-1-1-1h-1l-2 1v-3h-1l-1-2-2-1v-1h-1v-4h1v-3l-1-1v-1l-5-2-1-1h-3v-1l1-2v-1l1-1-2-1-2-1v1l-3 2 1 5-2 2-2 2-2 1h-1 1v1l1 1-1 1-1 2-13 5h-6v4l-1 2v1h-1l-3 1h-1l-2 1h-3v-3l-1 1v2l-1 1h-2l-5 1-3 1-1 1-1 1-2 1h-2l-1 1-2 8-2 1h-1l-2-1v-1l-4 2 1 6v2l1 2v-1h-1l-3 1-3-1-4-1-1-2-5 2-5 1-1-1v-1l-2-1h-2l1 1v3l1 1 1 1h-2l1-1-1-1-2-3v-4l1-2v-2l-2-3v-1l-2-1-3-1h-1v1h-2l-1-3h-1v-4l3-3 1-3-4-1-1-1h1l1-1-1-1h-1l-1-2v-1l-1-3-1-1-4-2-3-5 2-5v-1h3l1 1 1-3v-1h-1v-3h1v-1h-1l-1-1-3-1v-2l1-2v-1H6l-3 1-1-1-1-4-1-3 3-1 7-2 7-6 1-3 3-1-1-1-1 1-1 1h-2v1h-1v-1l-1-1v-3l1-3 8-9 2-3-1-4 1-3v-4h1l-1-4-1-2-2-4h-1l-3-4v-6l-3-1-1-1-2-6-1-7 1-2 5-2h2l5-1 2-1h6v1l3 2 2 1 2 1-1-3v-2l3 1h5l2-1 3-1 5-2h2v1l1 1h1l1-1 1-1 2-1 2-4h1v-2h-1l-4-4-2-2 1-3 2-3 5-1h1l1-1v-2l1-1 1-2 8-5 3-1h2v-1l1-1 2-1 3 1h6l1-1v-1h3l1-1v-1h1l3-3 5-2 1-1h1l2-2 2-3-1-1-1-1v-1l1-1v-1l1-1 5 2 1 1 1 5 6 3h3l2-1 3 2 1 2v2l-2 2v2l2 1-1 1-3 6v2h1l1 1 2 1 2 1v5l-3 1-3 1-1 1 1 2 1 1h1l1 1 2 1v-1l1-1 2-2 1 1h3v1l2-2h2l4-3 2-2 1-1h1l2 1 3 1h3v-2l3-2h2l1-1v-1l1-1h-2l-1-1-1-1-1-1 1-4 1-1-1-4 1-1-2-5-2-2-5-4-1-3v-1l3 1 1 1 3-1h1l1-1h1v-3l3-3 3 2 6-3 2 2h1v12h1l2 1h6l5-2h1l3-3 2-3v-2l2-2 2 1 3 1v1l-2 4 1 3v1l-1 3-1 1-1 1-1 1h-2l-1 1h-1l-2 5 1 2h2l2 1 2 2-2 5h-1l-3-1 2 2 4 3 3 1h1l1 1v3l1 1 1 2-1 1v8l1 1 6 5h3v1l1 2v1l-1 3 1-1h3v1l2 2v3l-1 3-2 6-1 7h5z"/>
    <path id="Niedersachsen" d="M177 149l-1-2-1-3v-4l4-11v-1l1-3 2-3 1-1h2l1-1h1v1h1l1 2 3 2 1 1 1 1h9v-1h5-1v-2l-1-1 1-1h14l3 2 2 1 2 4h1l2 4v2l1 2h1l1 1 2 2 1 1v1l1 1v1l1 1v4h1l2 2 5 4h4l2 1v5l1 1 1 2 3 4h1l1-1 1-1 1 1 2 2 2 1 3-2v-1l1-1v-1l2 1 1 1 2 2 2 3h5l1-2 1-1 2-1 2 1 6 3 2 1 1 1h1l5 2v-1h1l1-1h6l1 1v1l1 1 1 1v1l1 1h1l3 1 1-1h1l1-1v-1l2-1h2l2 1 2 6 3 4 1 2h1l2 2 2 1h2v2l-1 1 3 1 1 1 1 1 1 1v2l1 1 3 3h1l2-1 1-1h4l1 1 1 1v1h1l4 1h1l-2 4h-1l-1-1h-1v1l-1 1v3l1 2h-3l-1 1-1 1-1 1v1l-6 2-1 1-3-1h-1v-1l-1-1h-4l-9-1h-1v3l-3 3h-6l-3 1-2 1-1 2 1 2-1 1 3 8 3 2 3 5 3 5v4l1 1v1l2 2 1 2h-1l-3 1v1l1 2 4 6 2 1 1 1 1 1-1 1v1h-2l-1 2v4l1 2 2 1 1 2 1 1-1 1h-2l-1 1v1l-1 1v1h1v1h2v2l-1 2-2 1-2 2v2l-1 3h-6v1h-11l-2 1v1l-2 2-4 1 1 2 4 3h-1l-1 1v2l1 1h1v1h1v1l-1 1-1 1h-1l-2 2v7l1 2h1l3 5 1 2v3l1 2 1 1h-2l-2 6-1 1-4 2h-3l-1-2h-1v-1h-1l-1-1h-1l-3 1v1l-1 2v1l-2 2-3 3-8 5-5 1-7 4-3 2h-1 1v-2l-2-2h-3l-3 1h-1l-4 4-1 1 1 3 2-1h1v2l-1 1-2 1-3-1-6-3h-1l-1-1-1-1 1-2v-1l1-2h4v-5l-1-2v-1l-2-3v-1l2-2 2-1 1-1v-1l1 1 1-1-1-1h-1v-1l-2-2-3-1h-4l-1-1h-1v-3l-3 1h-5l1-7 2-6 1-3v-3l-1-2h-1l-2-1h-1l-1 1 1-3v-1l-1-1v-1l-1-1h-2l-6-4-1-2v-8l1-1-1-2-1-1v-3l-1-1h-1l-3-1-4-3-2-2 3 1h1l2-5-2-2-2-1h-2l-1-2 2-5h1l1-1h2l1-1h1v-1l1-1 1-3v-1l-1-3 2-4v-1l-3-1h-2l-2 2v1l-2 3-3 4h-1l-5 1h-6l-2-1h-1v-12h-1l-2-2-6 3-3-1-3 2v3h-1l-1 1h-1l-3 1-1-1-3-1v1l1 4 5 3 2 2 2 5v5l-1 1-1 4 1 1 1 1 1 1h2l-1 1v1l-1 1h-2l-3 2v2h-3l-3-1h-2l-1-1-1 1-2 2-4 3h-2l-2 2v-1h-4l-2 1-1 1v1l-2-1h-1l-1-1-1-1-1-2 1-1 3-1 3-1v-4l-2-2-2-1-1-1h-1v-2l3-6h1l-2-2v-2l2-2v-2l-1-2-3-2-2 1h-3l-5-3-2-4-1-2-5-2-1 1v1l-1 1v1l1 1 1 1-2 4-2 1h-1l-1 1-5 2-3 3-1 1-1 1h-2l-1 1-1 1h-6l-3-1-2 1-1 1v1h-2l-2-2v-2h-1v-2l2-3v-1l1-2 1-2-1-2-4-7v-1l-1 1-1 1v1h-1l-11-2-1-1-3-2v-4l1-3v-8l2-2h10l5 1 1 1h1l2 1v-2l1-7 1-4v-6l1-4 2-3 5-6 1-4 1-2v-1l-1-7 1-3-2-1v-2l1-2 1-2 1-2v-5l1-5 1-2 1-1h3-3l-1-1H87l-2-1h-1l-1-2 1-2v-3l2-12 3 1 1 1 2-1 1-2-1-1-1-1-1-1-1-1h1l4-5 1-1 3-2 1-1 3-1h1l2-1h1l8 1h1v1h3l4-1 4-2h2v1h3l3-1 6-1h3l3 1h1v6l1 1 3 1 1 1v1l3 8v2l-1 1h-1l-2 1h-1l-1-1v5l1 1h4l1 1 1 2 1 1v1h4l1-1v-1l1-1 1-2v-7l-1-1-1 1h-3l1-4v-3l1-1 1-1h1l1-1h1l1 1 1 1 1 1 1 2h1l3 2h4l2 1v2h-1l1 1 1 2v1h2l3-3-1-4 1-5h-2l-5-1h-1zm28 50h-1l-1-2h-1v-1l-1 1h-5l-4-2-4-2-6-1-8-4v-1 3h1v1l2 2 2 1h3v1l2 4v2h1l2 2 1 1v4h4l5 2 3 1 3-3v-7l-1-1h2l1-1zm-67-68l-1-1h-1l1-1h3l2 1h1l1 1h-2l-4-1v1zm9 3h-1l-1-2 1-1h1v3zm-21-1h-1v-1h1v-1l1-1h6l1 1h1-1l-3 1h-4l-1 1zm-12 3h-1v-2l1-1v-1h8l1 1v1h-1v-1h-4l-2 1-2 2zm-3 0h-4v-1l1-1h1l2 1v1zm-17 2l-1-1v-1h1l1-1h11v1h-1l-1 1h-7l-2 1h-1zm-16 2h-1l2-1h11v1-1h-6l-5 1h-1zm-9 11l-1-1h-1v1h-1l-2-2-1-1v-2h1l5-1h1l2 1 1 1-6 1 2 2v1z"/>
    <path id="Mecklenburg-Vorpommern" d="M322 114l5-3 2-2h2l2-1h6l4 4v4h2l2-1 2-1 2 2h1v1l1 1h1l1 1 2-3v-1l1-5v-2h1v-1l2-1h1v-1h1l2-4v-3h-1l-1 2-1 1-1 1v1l-2 2v-3l2-3 8-6h6l1 1h3l2-1 7-3 4 1h3l1-3 2-4h1l1-1 1-1 4-3h1v-1h1v-1h1l1-1 4-8 2-6 3-3 1 1h1l1 1h4l3 1 8-1h9l-3 2-2 1h-9v-1h-6l-3 2-9 4h-1l-2 7-1 2v2l3 2h3v-1h-2l-1-1v-1l1-1 3-4 4-3 6-3 5 1 5 2h2v-1l2-1v-2l1-1v-1l1-1h1l3-1h3l4 6-1 2 2 6 2 3 2-1h1l6 2v1h1l1 4 1 1h2l3 1-2 2v1h1v-1h1l1 1 1 2v1l1 2h3l-1-1-1-2 1-1 9-3 4-1 4 4v1h1v6l3 6 4 5 1 1 1 1h-1v1h-2v1l-2 2-2 2v1l1 1 6 4 2 1 2 2 7 2 1 1h5l1-1 1-1v-1h2l1 1v1l1 6 2 6 1 4-1 3 1 1v2l1 2 2 3v2l1 5 3 7v1l-5 2-1 1v2l-2 2-1 1h-10l1-2v-1l2-2h1l1-1 1-2v-1l1-1 1-1v-1l1-2-1-3v-1h-1l-6-1-1 2h-4l-2-1-4 1h-2l-2-4-1-3-5-6v1l-1 2v2l2 1-3 3h-3l-1 1-1 1-7 6v1l-1 3-1 1v2l1 1v1l-2 3-5 5h-1l-1-2v-1l-1-1h-4l-1 1-2 1v4l-1 1h-1l-1-2v-1h-3l-2 1h-1l-7 8-2-1 1-1 1-1-1-1-7 1h-2l-1 1h-2l-1-1-2-2-4-3v-1h-10v1h-3l-3-3v-1l-1-1-2-1h-1l-1-1h-2l-4-3-6 1h-4l-2 3v2h-1l-3 3h-1l-5 2h-3l1 2v1l-6 1-1-1-2-1h-4l-4 4 1 4-1 2v1l-1 1h-1l-2-1h-1l-1-1-3 1-3 2h-5l-1-1-1-1-1-1-3-1 1-1v-2h-2l-2-1-2-2h-1l-1-2-3-4-2-6h-2l-2-1-2 1v1l-1 1-1 1h-1l-3-1h-1l-1-1v-2l-2-1v-1h-1l-1-1h-5v1h-1l2-8v-1l1-1h1l2 1 4-3v-1l1-1 2-2 7-9v-2l1-2v-4l-2-1v-1h-4l-1-1-4-3v-7l-1-2v-2l1-2 5-4h3l1-2-1-3zm141-78l-1 1-1 1-2 2-3 7v1h1l3-3v-3l2-3h1v4l-1 1v1l-1 2v1l3-1 2-1 7 2h2l2-1v9h-2l-3-1-1-1-4-2v-4h-3l-3 1h-1l-3 1h-1v3l1 1h3l3 2-1 2-2 1h-3l-1 3v1l6 1-1 1-6 3-1 3v1l2 5 16 5 1-1v-2l-1-1h-1v1h-1v1h-1v-2l4-4 3-4h2l10-2 2 3-1 1-1 1-1 2 3-1 1-2 1-2-1-2-2-3-1-1-1-1h-1v1h-2v-1l-1-1-1-2-1-1v-4l2-1 2-2 1-1 1-1v-4h-1l-2-1v-1l-2 1h-3l-2 1h-6l-1-1v-1l-1-1v-2l-1-1h1v-2h2v-1h1v-2h-4l-4 1h-1zm-12 22v1-1l1-6 1-4 2-1-3-1-1 10-1 1v1h1zm4 2l5-2v-2l-2-1h-1l-1 1-1 1-1 3v1l1-1zm-9 1h-1v1h1l3-1 1-1v-1l-3 1-1 1zm51 26v-1h-2l-1 1h-1v2l1 1 2 3 1 5 3 5v1h1l4-2v-1l-1-2-1-2h4l1 2 3 3h1v7l-4-1v-2l-1-2h-1l-2 1h-1v3l2 1v1l1 2v1l-1 1v1l-1 1h-1l-2 1h-1l-1 2h1l1 1h5l3-1h1l4-2 7-1h1l1-6-4-3-4-4-5-5-1-1-2-1h-3l-1-1-1-1-1-1-1-1-1-1-2-4zm-140 24l1-2v-2h-1v-1l-2 1-3 1-1 1v3l1 1h3l2-2z"/>
    <path id="Hessen" d="M262 379v2l1 2 1 4 2 1 3 1 2 1 1 3 4 2 2 1h1v1l2 1h1v2h-1v1l-1 1 1 1v3h-1v-1h-1v-2l-1-1-3 1v1l1 2 1 2v4l2 1h1l1 1v1l-1 2h1-1v1h-4v-1h-2l-2-1h-2l-1 1v1l1 5 1 6v1l-2 4v1h-4l-1 1v5l-2 1 1 1 1 1v1l-1 1-1 2-2 2v1l-1 1v3l4 1h2v-2l-1-1v-1l3-1h4l1 2v2l-1 1-1 1v13l-1 1-1 1-3 4-2 1-1 1-1 1h-5l-1-1-3 1-1 2v2h-1v2h1v3l-1 1-1 1-1 1-1 1h-2l-1 1-1 1-1 3h-5l-1-1-1 3-1 3 1 4v1l1 1v1l-1 1-5 1-1 1-1-1-2-4-10-2-13 3h-1v1l-1 1v3l-1 1 1 1h2v1l1 4-2 1h1v8l1 3v2l-1-1v3h1l4 5h2l1 5-2 5-2 4v11l-1 1h2v1l1 1-1 1-2-2h-1l-6 2-1 1-2 2v1l1 1v1l-6 5-1 1h-2v-1h-1v-2l2-4h2l3-3v-1h-3l-6-2h-1l-2-1-1-1-2-8 1 1v-2h-1l-4 1h-1l-1 1v1h1l1 4v1l-1 1-1 2h-2v-1h-1l-1-1v-1l-2-3-2-1v-1h-2l-1 1v-1l-2-3-1-1-1-5v-2h1l1-1h1l1-1h1l1-1v-1l1-1-1-2-2-3-1-1-1-1v-1l-2-5-1-1v-1h1v-6l-1-1v-1h-1v-1l-2-1v-2h-1l-1-1-1-1-2-1h-2l-3 1-4 2-7 3h-7l-5-8-1-2h1l2-1 4-4 1 1h2l1-3v-1l-1-1h-2v-2l2-2v-1l5-2 2 1h1l2-1v-1h-1l-2-1v-1l1-1 1-1 1 1h2l2-1v-2l-1-2v-1l-3-5-5-3h-1l1-1 1-5v-1l-1-1v-1l1-2v-1l2-3h3v1l1 1h2l1-1v-2h1v-2l1-1v-1h-1l-1-1-1-5v-2l1-1 1-1 2-3v-2l-1-1-1-1v-1l-1-1 10-9v-1h1v1l5 2v-1l2-1 4-6v-3h2l-1-1h1v-1l2-1 1-1v-1h1l-1-1v-2l-1-3h-1l1-1v-1h1l2-1h3l1 1h3l3-1 3-6v-3l-1-7-1-1h-2l-4 2-1 1h-1v-1l-3-3 1-1 3-3 1-2h1l3-2 5-2 4-1h7l1-2v-2h-1l-3-4v-1l1-1 3-1 1-1h4l3 1 1 2-1 2 1 1v1h4l1-1v-1l5-4 4-3 3-5 4-5 2-2 3-1v3h6l3 2 2 2 1 1 1 1h-1v1l-1-1v1l-1 1h-2l-2 3v1l2 3v1l1 1 1 5h-1v1h-4l-1 2v2l-1 1 1 1 1 1h1l6 3 3 1 2-1 1-1v-2h-1l-2 1-1-3 1-1 4-4h1l3-1h3l2 2v2h-1z"/>
    <path id="Hamburg" d="M251 155v-2l1-2 1-3v1l2 2 1 1 1 1v-1l4-4v-1h1v-1h4l5-4 1-2 1-1 4-2h1l1 1-1 2 1 4v1l2 3-2 3-2 2-1 1v3l1 2 4 3h1v1l4 4v1l-2 1-1 1-1 2h-5l-2-3-2-2-1-1-2-1v1l-1 1v1l-3 2-2-1-2-2-1-1-1 1-1 1h-1l-3-4-1-2-1-1v-5l-2-1z"/>
    <path id="Bremen" d="M178 158h1v-2l-2-4-1-1 1-2h1l5 1h2l-1 5 1 4-3 3h-2v-1l-1-2-1-1zm26 41l-1-2-1-1-1 1h-5l-4-2-4-2-6-1-8-4v-1 3h1v1l2 1 2 2h3v1l2 4v2h1l2 2v1l1 1v3h4l5 2 3 1 3-3v-7l-1-1h2l1-1h-1z"/>
    <path id="Brandenburg" d="M538 171v2l1 3h2v2l-1 2-2 3-1 1v2l-1 1 1 1v1l1 1v2l-1 1v3l-1 2v1l-1 1-3 3-1 1-2 2h-1v1l-3 1-1 1v3l1 4v3l-1 1-1 1v1l1 1h1l1 1 4 1 8 5 2 2 1 1 2 2v2l2 2h1l2 2h1l1 1h2l2 2h1l2 3v9l-2 3v1l-2 1-1 1v4l1 1v4l2 5v1l1 1h2l4 1 1 1 1 1v8l-1 1v1h-1l1 3v1l1 1h2l1 1 1 2-1 3v1l-1 2v7l-1 3-3 4-1 1-2 2v2l1 2h1l3 7v1l2 1 2 2h1v1l1 1v1l1 4-1 3-1 1h-2v3l-1 1h-4l-1-1v-1l-2-1-7 3h-1v1l-3 1-5 2-3-1h-7l-1-1v1l-2 3-2 4-1 6-3 3-8 2h-4l-2 1-1 1-3-1h-2v-1 1h-6l-3-1-5-3-2-1-2-2-1-1-4 2-3 3v1l-2 1h-2l-1-1-1-2v-4l1-5-1-1v-1l-1-2-2-4v-1l-3-2v1h-2l-2-4 6-4 1-1 1-2v-2h-1l-3-12 1-1v-1l-1-1h-1v1l-2 1-3-1-3-3-5-2h-1l-3-1-5-3v-1h-1l-1-1-2-1h-1l-2-1h-1v2l-2 1h-5l-7-3-5-3-1-2-3-3-2-4-3-3 2-5v-7l1-1 1-3 1-3v-3l-1-3v-1l1-3 1-1v-1l-1-3-5-2v1l-1 1h-2l-1-1-2-2v-1l2-7 1-1h1l2-1v-6l-2-1-1-2v-1l1-4v-1l1-1 1-1v-2l-1-5-1-1h-3l-1 1h-1l-1-1v-2 1l-9 1-5-2-4-2h-1v-1h1v-1l1-1v-1l-6-3h-1v-1l-1 1-1 1h-1v-1l-4-2v-2l1-1v-1h-2l-1 1h-1l-4-1h-1v-1l-1-1-1-1h-4l-1 1-2 1h-1l-3-3-1-2v-1h5l3-2 3-1 1 1h1l2 1h1l1-1v-1l1-2-1-4 4-4h4l2 1 1 1 6-1v-1l-1-2h3l5-2h1l3-3h1v-2l2-3h4l6-1 4 3h2l1 1h1l2 1 1 1v1l3 3h3v-1h10v1l4 3 2 2 1 1h2l1-1h2l7-1 1 1-1 1-1 1 2 1 7-8h1l2-1h2l1 1 1 1v1h1l1-1v-4l2-1 1-1h4v1h1v1l1 2 1-1 5-5 2-2v-1l-1-1v-2l1-1 1-3v-1l7-6 1-1 1-1h3l3-3-2-1v-4h1v-1l5 6 1 3 2 3 2 1 3-1 3 1h4l1-2 6 1h1v1l1 3h-1v3l-1 1-1 1v1l-1 2-1 1h-1l-2 2v1l-1 2h10l1-1 2-3v-2l6-2zm-59 73v1l-1 1h-10l-1 3 1 1h-3v-1l-1 1-1 1-1 6v1h2l1 1-2 3-1 1v2h1v1l-1 1-1 1v1l2 1h3-1l3-2h1l2-1 3 1 1 1h2l3 2 2 1v-4l1-1h2v2l4 1 7 2h3v-1h1l-1-1 1-2 1-1 1-3-2-2h-1l-2-1-2-1v-3l-2-3-4-4-4-9h-2l-1 1v2l-1 1-1-1h-1z"/>
    <path id="Berlin" d="M479 244h1l1 1 1-1v-2l1-1h2l4 9 4 4 2 3v3l2 1 2 1h1l2 2-1 3-1 1-1 2v2h-3l-7-2-4-1v-2h-2l-1 1v4l-2-1-3-2h-2l-1-1-3-1-2 1h-1l-3 2h1-3l-2-1v-1l1-1 1-1v-1h-1v-2l1-1 2-3-1-1h-2v-1l1-6 1-1 1-1v1h3l-1-1 1-3h10l1-1v-1z"/>
    <path fill="white" fill-opacity="1.0" id="Bayern" d="M393 475h1l1 1 2 2v5h1l5 1 2 1v1l2 1 1 3-1 1h-1l-1 1v1l1 1 3 2h1l1 1 1 2 1 2v1h-1v5l1 1 1-1 1 1 2 2-1 2 4 1 4 3 4 2h2l2 1v1l3 5v4h-1l-2 5v1l-1 4-4 3v2l1 1 2 3 5 1v2l1 5 3 6 1 2v1h1l1 1h1v-1l1 1v4l-1 1 2 2 7 6v2l1 3h2l5 1h1v-1h-1v-1h2l3 1h1l2 2 3 3 5 8 1 1 2 2h1l1 3v1l1 1 1 1h3l2-1 1 1 2 1 1 1 4 4v1l1 2 1 4 1 1 4 3h1v-3h5l3 3 1 1 1 2v2l2 1h3v-1h1l6 9 1 3-1 2v2l-1 1 1 3 1 5v2l-1 5-5 6h-1l-3-2-5-3-6-2v2l-1 1-1 1h-1l-2 1h1v1l1 2-1 4-1 1v1l1 2v1l-1 5h-1v1l-5 5h-1l-3 3h-6l-3 2h-4l-4 3h-1v2l-2 2-1 1h-3l-3 1v1l-1 2-1 2-3 1-2 3h-1v3h1v1l1 1 2 2 2 2 1 1h1v1l1 4 3 1h1v1l3 4 3 5v1l-3 5-4 7v1h1l1 1h5v-1h3v1l2 2 2 5v1l-2 2-1 3-1 5 1 1v3l-2 3h-1l-2-1h-1l-3-2-8-5-1-1v-1l-1-1 1-2 1-1-3-6h-1l-4-1h-2l-4 1h-1l-1 2-4 3h-1l-3-3-2-2-5-1-2-1-5 2-1-4 1-1v-1l-1-1v1l-4 4v3l1 3v3l-1 1h-4l-3-1-2-1-3 1h-7l-3 2-1 2h-2l-3-1h-10l-2 1-1 3-1 1h1v2l-1 1h-1l-4 1h-4l-1-1-2 2-1 2-6 5v1h-1v2h-1l-3 1h-1v-1l2-2v-1h-3l-3 1h-1l-1 1-3 2h-8v-2l1-1v-1l-2-1-2-3-3-1h-1v-2l2-2-1-1h-2l-4 1h-3l-5-2v-2h-7v2l-1 1h-3l-3-1-2-1v-1l1-1v-1h-3v8l1 2h1l1 1v5l-4 5-5 6-1 2-3 1-3 1-4 1h-1v-2h1l2-6 1-1 1-1v-1l-1-1h-4v2l-5 2-1-5v-2h1v-3l-1-1-2-2-2-1-1 1h-1v-1l-2-4v-2l-3 1v1h-4l-4-2v-1h1v-3l-2-1h-1l-1 1h-1l-2 4-4-1-3-2h-1l-1-1 3-2 1-1h3v1h4l5-6h11v-1l1-1h4l1 1v3l1-1v-1h1v-1l1 1 1-1 1-3-3-7v-3h1l2-1-1-1v-1h-1v-1l-1-3v-6l1-1-1-1h-1v-3h2v-1l1-2v-1l1-1v-9l-1-1-1-1-1-3v-1h-1v-3l-1-9-1-1-3-4-1-2v-2l1-3 2-3v-2h-1l2-1 3-1h1l1 2 3-1 4-4v-1l2-1h4v-5l-1-6-2-1-1-2v-2l1-3 4 1v1l5-1 2-1v1l-1 2v1h1l2-1 1-1 1-1h-1v-1l-1-2v-1l-3-1v-4l2-3v-13l-1-1-1-1-1-2v-1l-6-4-4-2v-2l-1-6-2-4-2-1-1-1-3-1v-7l1-3-1-1-2-4v-4l1-1h3v-1l-1-2-1-2-1-4-1-1v-1l1-1-1-1-1-2v-1h-2l-1 1v1h1v2l-3 2h-6v-10h-2l-1-3-1-1-2-8-1-1-1-2-1 1-5 1-2 2h-2l-1-1-1-1 1-1v-1l1-6v-1l-1 1-5 4-3-2v-2h-3v2l-2-1h-5l-3 1v2l2 3 1 1h1v-3l1 1 1 1 1 2-1 3 1 1h-1v1l-2 1-2-1-3-1-1 2-1 1 1 1-3 3v1h-2l-1 1h-5l-1-1h-1l-1-2 1-6 2-4 2-5-1-5h-2l-4-5h-1v-3h1l-1-1v-8l-1-3 2-1-1-4v-1h-2l-1-1 1-1v-3l1-1v-1h1l13-3 10 1v1l2 4h2l5-1 1-1v-1l-1-1v-1l-1-4 1-3 1-3 1 1h5l1-3 1-1v-1h3l1-1 1-1 1-1 1-1v-3h-1v-2h1v-4l4-1h1l2 1h3l1-1 1-1 2-1 3-4 1-1 1-1v-3h1l1-1 1-2 7-1h1l1 3 2 2 5 2 1 1 2 5v3l1 1h2l1-1h1v2l3 3 4 1 3 1-1 3v3l1 3v2h2l5 2h1v-5h1l2 1h3v1l1-1h1v-3h-1l-1-1h-1l-5-4h-1v-4l8-3h7l1 2 2 2h5l1-1 1-1h1l2 1 1 3-1 1v1h-1l1 1v1l3 2 1-2 3-1 2-6v-1l-1-7v-1l-1-1v-3h3l2-2v-1l1-1h5l1 1v2h-1v5l2 1h2l1 2v1l2 2h2l1-1v-1h2l1 1h1l12-1 4-2 3-1z"/>
    <path id="Baden__x26__Württemberg" d="M207 563l1 1h6l1-1h2l3-4-1-1 1-1 1-2 3 1 2 1 2-1 1-1-1-1 1-3-1-2-1-1-1-1v3h-1l-1-1-2-3v-2h1l2-1h5l2 1v-1l1-1h2v2l3 2 5-4 1-1v1l-1 6v1l-1 2h1l1 1h2l2-2 5-1 1-1 1 2 1 1 2 8 1 1 1 3h2v10h6l3-2v-2h-1v-1l1-1h2l1 1v2l1 1-1 1v1l1 1 1 4 2 2v3h-3l-1 1v4l2 4 1 1-1 3v7l3 1 1 1 2 1 2 4 1 6v2l4 2 6 5 1 2 1 1 1 1v13l-2 3v4l3 1v1l1 2v1h1l-1 1-1 1-2 1h-1v-1l1-2v-1l-2 1-5 1v-1l-4-1-1 3v2l1 2 2 1 1 6v5h-4l-2 1 1 1-5 4-3 1-1-2h-1l-3 1-2 1h1v2l-2 3-1 3v2l1 2 3 4 1 1 1 9v1l1 2v1l1 3v1h1l1 1v10h-1v1l-1 2v1h-2v2l1 1 1 1v1l-1 2v4l1 3v1l1 1 1 1-2 1h-1v4l3 6-1 3-1 1-1-1v1h-1v2l-1-3-1-1h-4l-1 1v1h-11l-5 6h-4v-1h-2l-2 1-2 2h-4v-1l-1-1-1-2v-1l-1-1v-1h-1l-5-2h-3l-1 1h-1l-1-1-2-1-3-2-1-1-1-1v-2l-1-1-8-5-2-1v-1h-3v1l3 3h1v1l3 2h1l2 1 3 6v1l-2 1h-1l-2-1-3-1h-1l-2-1h-3l-1 1h-2v1h-1l-1 1-3 1-2-1-4-4-1 2h-1l-4-2-1-4v-1h1l-1-2-2-2h-2v1l-1 1h-1v-1l-1-3-2-1-1 1-1 2h-4l-1 1-2 2-3 5v3l4 3 4-1v-1h1l1-1h4l1 2v1l-2 3-1 1v1h-1v-2l-1-1-1-1h-1l-4 3 1 2h1l-1 1h-1l-2 1h-1l-6-1h-1l-2-2v-2h-1l-2-1h-4l-6 3v1h-1v2h-1l-4 1-5-1-3-2-1-1v-1h-1l-3 1-2 1-1 1v1l-3 1-4 1h-1l-1-1-1-1-1-1h1l2-1v-2l-6-2-4-6h-1v-4l2-1v-2h1v-1h-1l-1-3v-1l1-1v-2l2-3v-2l-1-1v-1h1l1-5 2-2 1-1v-4l-1-1-2-2v-6l1-3v-1l1-3 1-1 2-3 2-3 1-1v-3l1-3v-1l1-1 2-1h1v-1l-1-4v-3l1-1 2-5 2-5 1-1v-7l2-6h1l1-1h1l1-1 5-5 1-4v-1h3l4-3 1-1 1-1v-3l1-1v-1l1-1v-1l1-2 3-5h1v-1h2v-1l2-1 1-1h1v-2h1v-4l1-1 1-1 1-1v-1h1v-1l2-10v-4h1v-1h1l1-1h1l1-2 2-1v-2h-2v-1h-1v-1h1v-1h1v-1h1v-1l1-1v-7h1-1v-1h-4v-2h1l-1-3v-1l-1-4v-4l1-1h2v1l2 1 2 3v1l1 1h1l1 1 1-1 1-1 1-1v-1l-1-4h-1v-1l1-1h1l4-1h1v2l-1-1 2 8 1 1 2 1h1l6 1h3v2l-2 2-3 1-2 4v2h1l2 1 1-1 6-6-1-1v-1l2-2 1-1 6-2h1l2 2h1v-1l-1-1v-1l-2-1h1v-3zm-29 193v-2h-3v2l1 1 2-1z"/>
  </g>
</svg>
