<svg xmlns="http://www.w3.org/2000/svg" viewBox="0 0 454 450" version="1">
  <path class="eu europe" d="M444 409l-5 7c-1 2 4 2 3 3h-1l-1 1h-2v2l-5 3v2c-1 1-1-1-2-1l-1 1h-4v-1l-2-3h1l1-2h4v-2l-1-2 2 1 5-2 8-7z" fill="#fff" stroke="#fff"/>
  <path class="europe" d="M277 363v-1c-1-2-3-1-5-3l-1-1h-2 1v1l-4-2h-3v1h4v1c4 1 3-1 8 3l2 1zm2-30c-1-1 0-1 1-1v-1l-1-3c1 0 3 2 3 0l-4-1v-2h1l-2-1-1-4h-2v2h-7l-2-1h-2l-7-6h-3v2h-1v1l-4 1c-1 1 2 4 1 5-3 2-1-2-4 1l1 1v3c-1 1-2-1-3-1-2 0 1 2-1 1l-2-2h-1v1c-1 2-3 0-5 1 0 0 1 0 0 0h-4l1 2v3l2 2 1 2 1-2v-1c1 0 0 2 1 0l1-1-1-1 1 1 1-3c2-1 1 0 3 2h1c2 2 0 5 2 7l3 2 2 1c-1 1-4-2-3 1 0 2 4 4 5 5h-1l3 1v2l4-1 2 2h3c1 0 1 2 3 2l2 2h1v1l1-1c1-1-3-3-4-3v-2l-1-1-5-5-4-3-1 1 1-2-1-1-2-3-1-1c-1-1-2-6 1-6l3 3h1-1l1-3h3l1-1 2 1h1c2-1 4 1 5 1l1-1 1-1 1 1v-1h2l1 1v-1c3 0 2 3 3 3h2z" fill="#fff" stroke="#fff"/>
  <g>
    <path d="M29 411c0-4-1-5 2-8l1-1c1-1 5-1 4-3h-2v-1l-1-2 1-2v-1c2-2 4-1 4-4l-2-2v-3l-2-3h3c2 1 2 1 4-1 1-3 0-2-1-4 0-2 3-1 3-2v-2l1-2v-2l-1-2h2l1-2c2-1 5-1 5-3 1-2-2-2-2-2v-4l-5-1h-1v1c-1 1-2-1-3-1h-1s1 0 0 0v-1h-5c-2-1 3-1 1-3h-6c0 1-2 2-1 3l1 1h-1v7l-1 3-1 2 1-2 1 2-3 1-1 3-1 1 1 2-1-1-1 2-3 4-1 1v1h-2v2l-3 5 1 2 1 3h2l1-1 1 1 1-1v1l1 1c-3 1-1-2-3-1l1 1v2l-2 3v3l-1 3-2 5h3l7 3 4-1h1z" class="eu europe" stroke="#fff"/>
    <path d="M125 362l2 1 1 1 2-1 3 2 1-1h5v2l-2 1 1 4-6 3-3 1-3 2c-3 1-9 0-11 3l-2 1 2 2-3 1-3 3c-2 3-6 5-8 9l2 7s3 2 2 3l-2 1-1 1h-3v2h-1v1l-2 1v2c-1 2-2-1-3 2l2 2-2 1-2-1c-2-1-4 0-6 2-3 1-3 5-6 7-1 0-1-3-4-2l-1 1-4-1h-4l-1-1-8-1-3 2h-5l-3 3-1-1-1 2-1-1-1-1-1-1h-1l-2-5h1c0-2-2 0-2-3 0 0 4-1 3-2l-2 2v-2l-2-2-2-2-2-1h-3c0-4-1-5 2-8l1-1c1-1 5-1 4-3h-2v-1l-1-2 1-2v-1c2-2 4-1 4-4l-2-2v-3l-2-3h3c2 1 2 1 4-1 1-3 0-2-1-4 0-2 3-1 3-2v-2l1-2v-2l-1-2h2l1-2c2-1 5-1 5-3 1-2-2-2-2-2v-4l-5-1h-1v1c-1 1-2-1-3-1h-1s1 0 0 0v-1h-5c-2-1 3-1 1-3h-6v-2l2-1 1-1-2 1v-1l2-1h-2l-1-1h1v-1l2-1c0-5-4 1-4-4-1-3 2-2 2-2l-1-1h3l7-3c1-1 2-2 3-1v1l2-1c2 0 2 4 5 5l1-1 4 1h2l1 1 3-1 1 2h2v1h1c2 1 8 4 12 3h1l3 1 4 2s-1 0 0 0l1-1 2 1h1l1 2h6l2 1 1 1c1 1-2 2 0 2l1-1v1c1 2 3 1 4 2l2 2 3 1 2 1h1l2 1v-1l3 1s-1-2 1-2l3 2h1l1 1 1 1c-1 1-1 3 2 2zm-82 69l1 3h2v-3h1c-1-2-3 0-4 0zm25 11l1 1v-2l-1 1zm1 1h1-1zm66-49c-1 5 1 1 3 3 1 1-4 6-5 5v-1c-2-1-2 1-2-1l-1-1h-1l-2-1 8-4zm10 0c2 6 0 2-2 1h-1c-3-2 0-2 3-1zm-17 9l-1 1 1 1 2-1v-1h-2zm-2-3l-1 1v2l2-1 1-1-1-1h-1zm41-121h-3l-1-1v-1c-1 0 0 0 0 0h-1l-1-1-2-1 1-1-1-1v-1l1-1c-1-1-1 1-2 2s-4 0-4-1v-1l1-2c-1-2-4-1-5-1l1-2-3-1-1-3c-1-1-1 1-2 1-2 0-2-4-3-5h1l6-3c0 2 2 1 3 1v1c2 1 2 0 3-1l1 1v-1h1c1 0-1-2 1-2v1c1 1 2-1 2-1v1h2l1 2c2 1 4 0 5 2v1l-1 1v1c-1 3 1 2 2 2l1 2h1l-1 1 2 1c1 2-2 2-2 4-2-2-3 1-4 2 0 1 3 5 1 5zm88 137c-1 1-5 10-4 12 0 0 2 0 1 1 0 0 0-1 0 0h-1l2 2-2 1v4l-2-1c-2 0-1 1-4-1l-3-3-5-1h-1l-1-1h-1c-2-1-3-3-5-3h-3l-2-3v-1l1-2h1l1-2 1 2c4 0 0-2 4-2 2 0 1 1 1 1h2v1l2 1 2-2 4 1 3-2c3-2 1 0 4 0 2 0 0-1 1-2l1 1c1-1 1-2 3-1m-62-35c0 2 4 1 4 4l-2 1 2 1c1 0 0 0 0 0 0 3 1-1 2 3 0 2-2 2-3 4l2 2-1 1c0 3 0 8-2 11v-1c-1 0-3-2-4-1-1 0 0 0 0 0v1c-1 2 1 2-2 3-4 2-1-2-3-2h-2 2l-2-2 1-5v-1l1-2h-1v-2h1l-2-7c-1-1-2 3-1-1v-3s1 2 3 2l7-6m39-65c-1 2-3 1-3 3l2 1c1 1-1 1-1 2 0 2 1 0 1 1v2c1 0 5 3 1 2v-1c-1-2-1-1-2 0h-3v1l-2 1-4 2h-1v1l-1 1 1 1v-1 2h1l1 2c1 2-1 1-2 3l1 6 9 6 2 2c2 1 4 8 5 10l4 5 2 1 1 1c2 2 7 2 10 1h3c2 3-5 3-1 6l11 4 3 2 5 2 1 1c1 1 4 1 5 4l-1 2v3l-2-1c-3-1-2-2-3-4s-4 0-5-1c-2-1-3-3-5-1l-2 5v1c0 2-2 2-1 4h3l3 2 1 1-1 1c0 2 2 0 1 3 0 2-3 2-5 3v5l-2 2c-2 2-1 6-6 5 0 0-2-3-1-4l2-1v-1l1-2-1-1c0-2 2-1 3-2s0-2-1-3l-1-4-1-2h-1c-2-3 0-1-1-4s-2-2-5-1v-1l-1-1-2-1v-2l-1-2c-2-3-2 1-5 1 0-1 2-2 1-3-4-2 0 0-4 0v-1l-3-4h-2l-2-1-2 1-2-2h-3l-1-2-2-2-1-2-2-1h-1l-2-4-5-1h1l-1-3h-1l-1-1-1-1v-1h-2v-2l-1-4c-2-3-1-5-3-7l-1-1h-1c-1 0 0 0 0 0l-2-1-4-2-4-2-3 2v1l-1 1-2 3-5 1c0-2 3-4 1-5h-3l-3-3-1-1 1-2h1v-2c-1-1-4-2-3-4h2l3-3-2-1v-2c-1-2-4-1 1-3 1 1 3-1 4-1l3 1 2-3v-1l1-1 1-1 1-1v3l3 2v1l1 1s0 2 1 1-1 0-1-1c0-2 3-3 3-5 0 0-1-2 1-2 1 0-1 2 2 3 1 0 0-2 3-1l1 2 1-1-1-1 1-1c-1 0-2-1-1-2 2-1 1 1 3 1 1-1-1-2-1-2l1-1v-1h2s1 2 3 1l1-3h5l4-1-1 1c0 2 1 0 1 1v1h1c2 2 2 2 5 2l7 1zm-11 32h1c1-1 0 2-1 0zm17-86c2 0-1-2 2-2 2 0 0 1 1 2l4 1 1 1h1v1l3-1c2 1-1 2-1 3l2 1c0 1 1 3 2 2l1-1h1c1-1-2-3-1-3l4 2h2v-1h1c1 2 0 1-1 2l1 1 1 1c3 0 0-1 2-1l2 1h2l1 2 1 1 1 2h1v1c1 1 3-4 4-3l1 2h1v2h3l2-3h2l2 1 2-1h-1l1-1h7v2h2l4 1h2c-2-4-1 0-2-2v-1l-1-3c-1-1 5-11 6-12 2-1 3 1 3-3l-2-2c-1-1 2-1 1-1l-5-5v-2l-1-1c-1-2 1-5-1-7l-2-1-1 1c-3-1 3-6 4-7v-1c0-5-4-9-6-14v-2l-4-2-1-1-1 1c-4 3-17 3-22 2-2 2-5 3-7 2-2 0-1-2-2-3v-1h1l-2-1c-3 0-7 3-10 4l-2 1-3 4-10 3-2 2h-1v3l2 5c0 2-3 4-2 5 0 2 4 2 4 3l-1 3 2 1v3l-1 2 1 2v2l2 1v7zm-9-35zm0 0zm0 0zm0 0h1m0 0zm0 0zm1 1zm0 0zm31-16l1 1v1l-1-2zm103 224v3l-9 2-6 2c-2-1 1-1-4-2-6-1 1 1-3 1l-1-1h-2l-2 1-1-2v-3c1-2 2 1 3 1h2l1-1-1 1h2l1 1h1l3-2h3l1 1 3-1v1l3-2c1 1-1 3 1 3l1-1c2-2 2 1 4-2m-19-71l3-1c2-2-4-5 0-5h1c2 0 5 2 3 4-1 1-2 0-2 2l1 3-2 3v1c-2-1 1-1-1-2l-4 1c-3-1-4-2-6 0l-1 1c-3 2-1-2-4 0-1 1 0 2-2 3s-2-1-4 1c-1 1 1 1 1 1l1 2h2l4 3c0 2-3-2-3-2-1 0-4-1-4 1l3 2v2l-3-3h-3c-2 2 4 3 4 4h-4v-4l-5-1c-2-1 0-1 0-3l-1 1-2 2 1 1-1 3 4 3 1 3c1 1 6 3 5 4l-4-2v1l-1 2 1 1c1 0 3 0 1 1-1 2-3 2-4 2v1l1-1 1 1h3l1 1 2-1v2h2c1 0 0 2 2 2s2-1 4 1c1 1-1 0-1 1l1 1v1c0 1 2 2 0 3-1 0 0 0 0 0l-2-1-3-3-1 1-4 2 2 1h-1l1 1v1l4 2-2 1h-3v-1h-3c-1 1 2 3 3 4l-1 1h1l2 3v2l2 2-1 1-1-1h-1c-1-1-2-5-4-2v4c-3 0-1-2-2-3v-1l-2-1-1-2c-4-1 0 3-2 4s-2-2-2-2v-1c-1 1-1-1-2-2 0-1 1 1 1-2 1-1-2-3-3-3h-1v-2c-1 0-3 0-2-1h1l1-4h3c1-1-1-1 1-2 1-1 2 0 3 1h5l3 2 1-1h-2c-1-2 3 1 4-2h-1v-1l-1 1-3-1-1-1-1 1c-2 0-1-4-2-2v2h-4l-4 2-2-2v1l-2 1v-2l-2-2-1-1c-1-1-3 1-1-2h-1v-1l-5-4v-1c0-1-2 0-3-2 1 0 0 0 0 0 2 0 3 1 3-2h1l-1-2 3-2 1-4c0-2 1 1 2-3l-1-2 7-3c1-1 0-2 2-3h5l1-1s0 1 0 0c1 0-1-2 2-3v1-2 1h2l1-1h3l5-3h1l2-1 1 2h2v-1l4 1v1l5-2zm-38 36c1-2-2 0-2 0-1 0-1-2-2-1v2l4-1zm-2 11h-3l-1-2v1c-1 2-1-1 1-3l1 1v1c1 0 3 1 2 2zm32-8l-2-1h-4v-1l-6-3-2 1 1-1 1-1 1-1 1-1 3 3h2l1 1 3-1v1l1 1 1 4c1 0 5-1 3 2l-4-1 1-1-1-1zm-31-274l3-6 7-16 2-10v-2c-1-2-9-5-11-7-1 0 3-5 0-7l-3-1c-2-4 1-2 0-3-1-2-2 0-4-2-1-2 0-2 1-3l-2-1v-4c-2-2 0-1 1-2l-2-4-6-6-2-2c-1-3 3-10 2-11l-2-1-3-3h-3l-1-2c-2-4 0-3-1-6l-2-1 2-2c-3-1 1-3 0-5-2-4-5-2-8-5v-1 1c-2 0-2 2-3 3-2 0-1-2-3 0v1l-1 2 1 4-1 1 1 1 1 2c0 4-1 1-2 2v4l-1 1-1-2-4-1-1 2c-1 2-2 1-4 1h-2v-1l-4-5c-2-2-3 0-2 2l-1 2v1l6 4c2 1 4 0 6 2v1h1l2 2c-1 2 0 2 1 5l-1 1h2v4c0 1 3 2 3 4l-1 5 4 6h2l1 2h4v5c1 1 3-1 2 2l-2 1-1 1v1h-1v4l-2 2v1l-1 2v1c0 2-3 2-3 4v2l-2-1v4l-1-1 1 1c1 3 0 1-1 2l-1 2v-2l-2 1c-2 3 1 1 1 2l-3 4c0 6 1 0 1 2v2h1l1 1v4l1 1 1 1v2l2 2h-2l1 2v3l-1 1c0 2 1 2 2 3l-1 1 1 1c2 3 0 0 2 0v1h2l1 1 1-1 1 1v-1 3l3-2v-1c0 2-1 3 1 4h1l-1 1c1 1 1-1 1-1v1l-1 1-1 1c3-1 2-3 4-4l-1 2 3-1 1-1 3-1v-1h2v-1c0-1 0 0 0 0l3-1 1-2s3 3 2 0c0-1-2-1-1-2h2l1 1v-3c1 0-1 3 2 2 4-2 0-1 1-2h1v-1l2 1 2-1v-1z" class="eu europe" stroke="#fff"/>
    <path d="M231 228l2 5c0 2-3 4-2 5 0 2 4 2 4 3l-1 3 2 1v3l-1 2 1 2v2l2 1c1 1 0 8-1 8s-3-5-4-2l1 1-4 2-2 1-1 1h-1l-1 1h-1v2l-2-1-4 4v-1l-1-1 2 4 1 1c1 1-1 1-1 2l2 4 3 1 2 2c1 1 5 3 5 5 0 3 0 2-2 2h-1v3c-1 0-5 1-5 3l2 3-1 2c1 1 2-1 1 2v1c-3-1-1-3-2-3l-2 1-1-1h-1l-1 1h-4l-1 1-1 1-4 1v-1h-1 1c-1-2-3 0-4-1v2l-2 2v-2l-1 1v-2l-1-1h-3l-3-1h-3l-1-1h-1 1c-2-2-3 1-3 1h1v1c-3 1-1-1-3-1l-5 1 1-1c-1 0-1 2-1-1v-5l2-3v-3l4-4-6-2v-1l-4 1v-1c-3-3-1 1-2 0l-2-4h-1c-1-2 3-3 1-4 0-1-2-1-2-3-1-3 3-3 2-5l-2-1 1-1h-1l-1-3h1c0-2-3-3-2-3l1 1 1-2v-1l1-1c1-3-1-4-2-5v-1h2v-1l2 1 3-2c0-1-2 0-1-1 2-1 3-1 3-4 0-1-4 0-3-2h1v-1h2v-2l2-5 1-1h-3l2-5 2 1c7-1-7-1 3-1h1c0 1 1 6 3 5 1-1-1-7 1-7l1 1h4l1 1c0 1 3 6 3 3l-2-1-3-4s-2 1-2-1c0 0 2-3 1-4h-3 1l-1-1c1 0 3 1 3-1l-2-3-1-2h2l4 1 1-1v1h3v2s0-1 0 0v1l-1 1h3l-1 2 1-1c1-1 3 1 4 1l2-1c2 3-5 5-1 5h2c1 0-1 2 2 1l1-3h3v-1l2-1 1-2h4v2l2 1 1 1h3l-1 1 1 2 2 1 1 1zm-9-8l1-2h2l-2-1 1-1v1h2v2l1 1-3 2-2-2z" class="eu europe" stroke="#fff"/>
    <path d="M217 209l-1-1v-1l2 1-1 1zm-1-3zm2-1c1-2-1-2-1-4l1-1v-1h-4 4l-1-3 2 1-1-2 2-1v-2h-2l-1-2-1-1v-1l-2-2 1-1h-1l-1-1-1-5h-1v-1c0-2 2-5 1-7s0 4-4 1v-3l-1-6 2 1h1c3-3 0-6 0-8l2-1v-2h-1c1-1 4-1 4-3v-3c1-5-1-4-2-8l3-1 1-4c0-2-4-2-5-4l1-7-1-4v-5c0-11-1 8-1-3l1-3v-1l3-6c4-2 7 2 7-2 1-5-3-4-2-5l3-8v-4l1-3-1-4h2l2-2c1-1-1-2-1-3l5-6c1-3-2-3-2-5l1-2 1-3 3-4 3 2v-7c1-2 7 1 8 1 3-2 0-2 0-3l1-3v-2l-1-1 2-1 1 1v1l6 4c2 1 4 0 6 2v1h1l2 2c-1 2 0 2 1 5l-1 1h2v4c0 1 3 2 3 4l-1 5 4 6-1 1h-4v2c-2 1-2-1-4-2v4l-2-1s0-1 0 0c-1 1 2 0 2 1l-2 1h1v1c-1 1-3 0-3 2h1l1 2c1 1-2 2-2 4s3 2 3 4l-2 4c0 1 0 5-2 5v2l-1-1v1l-2 1v1h-2l1 2-2-1v2l-1 2-2-1 1 1c1 0 0 0 0 0v-1h-1l1 1h-1v1l-1 1h-1l2 1-1 2h-2v4h-3c-2 1 1 2 2 3h-1v5l1 3-2-1c-2 1 1 3 1 5h-1l1 1h-1l1 1v1c0 1 0 0 0 0v1l1 1-1 2h1v1h4v1l2 1c0 1 0 0 0 0v1s5-2 3 1l-2-1 1 1 1 2 1-1v2c2 1 3 0 2 3h-1l-1 1-2 2v2l-1-1-2 1v-2l-1-1-1-2-1 1h1v2c0 1 2 0 1 1-1 2-3-1-4-1l-2 1-1-1-1 1c0 1 0 0 0 0l-2 1c-1 0 0 0 0 0h2l3 1v-2l1 2h2l-1 1h2l-1-1 1 1h3v-2h2l1-1 1 1h-2v1l1 2h-1l-1 1-1 2-1-1 1 1c-1 0 0-4-2-3 0 0 1 4-1 5h-2l1 1h-2l1 1h-5 1c2 0 3 0 4 2h-1s1 0 0 0h-3l2 1 1 2h-1c0 1 2 3 1 4h-2v1l2 1-1 2 1 1-1 3 1 2h-1c-1 1 1 3 1 4h-1v1c-1 3 0-2-1 1 0 2 0 5-2 7v-1h-2v-1l-1 1h-5l1 2h-2l-1 1c-2 4 1 3 1 5l-2 2h-2c-2-1-1 1-4 1l-2-1-1 1c-1-1 1-1 1-1l-1-2 1-1-3-4v1c0 2 2 2 0 3v1zm29-24h1l-3 10v4l-1-4c0-3 2-4 3-7v-3zm13-2l-2 1v2l-2 2-1 1 1-2v1l-1-1-1-2 1-1-1-2 3-5h2c1 1 0 1-1 3-1 3 2 2 2 3zm3-102zm-7 25zm-42 101v-2 2z" stroke="#fff"/>
    <path d="M84 210l1 2h-2v3l1 2-1 1v1h-1l1 1v4l-4 6-1 1v2h-2l-1-1h-7 1l-2 1h-1l-1 1c-2 1-1-1-3-1v1l-1 1-1 1v-1h-1v1l-3-1-2 1c-2 0 1-1-1-1h-3l4-2-1-1h-5 2v-1h-1l-2-2h2l-1-1h3l2-1-2-1v1l-3-2h3l3 1-2-2 3-1v-1l7 1-1-1v-1l-3 2v-1h-2v-1l-3 1 1-1 2-1h1l1-1 1-1h-1l1-1 1-1 1 1 2-1h-1l1-1h-4c-2-1 0-1-1-2 0-2-3-1-4-2-2-3 2-1 2-1v-1l1-1h3c1-3-2-1-2-2h1l-1-2 1-2-2 1 1-1v-1l6 1v2l1-1c1-1 3 2 3 2v-2l3-1 2-1h-3v-1l-2-1c1-2 3 0 3 0l-1-2 2 1-1-1 1-1c0-1-4 0 1-2h1l4 1c1 1-2 2-1 2h1l1-1 1 1c-2 0-2 2-3 3h-3c0 1 2 1 1 2l-3 1 4 5c5 0 0-2 4-3l1 3 1 1-1 1h3v1-1z" class="eu europe" stroke="#fff"/>
    <path d="M96 221c1 1 3 2 1 2m-1 1h-1c0-2-2-3 1-3m9-64l2 1-1 2 2-2v2l1-1 6 1h3l-1 1-1 2-7 5h2l-1 1-1 1v-1l-1 1h-1c-1 1 1 2 2 1h-1 2l4-1 1 1c2 1 7 1 8 3v1l-2 2v2c-1 0 0 0 0 0l-6 7c-2 0-3-1-5 1h1l2-1c2 0 1 1 1 1l1 2c0 2-2 0-3 0-3 1 3 2-3 1v1c0 1 0 0 0 0l3 1 1-1 4 3 2 3 1 1v3l1 10 1-1 1 1 3 2v3c1 1 2 0 2 2l-1 1 2 5c0 2-1-1-1 1 0 0 3 4 1 6l-2 2c-1 0 0 0 0 0l1 1 1 1c2-2 1-3 3-2 3 0 8 1 7 6 0 2-2 6-4 7l-2-1c0 2 4 2 0 3l-1-1-2 1h2v1c-1 2-3 1-4 1l-1 1h1l1 1 1-1 1 1c1 1-3 0 0 1l4-1-1 1v2l-3 2v1h-5l-1 1-3-1h-6v-1 1l-1-1h1-1v-1l-1 1-2-2 1 2h-6l1 2-1-1-3-1v2-1l-1-1-7-2-2 6-4-3v1c-2-1-3-2-4-1l-1 1-2-1v1l-2 2-1-1-2-2 3-1h2v-1l2-2h1l2-2 1-2h1c2 1 0-3 5-2 2 0 4 3 6 1l1-1 5-4-3 1-2 1v-1c-3 1-2 3-5 1l-1-3-3 1-1-3c0-1 0 0 0 0h-2l-1 1h-2l-1-1h2l-3-1v-2c0-2 4-1 4-1l1-1h2l5-4-1-5c-1-2-3 4-4 0l3-2 1-1 1-1h2c1 0 0 0 0 0l2 1 3-1 1 2v-2l3 1h-2l-1-3 2-1 1-1-2-1c-1-3 2-1 2-2v-1l1-1c0-2-1 1-3 1v-3l-1 1v-2l-1-2c0-2 3-5 3-5v1l2-1h-1l-2-1-1 1h-2l-1 1v-1l-1 1c0-1 0-2-2-2v3l-1-2c-3-4 0 1-4-2h2c-1-2 0-2 1-4 2-2-2 1 1-2l1-1-1-3h1v-2h2l-2-1v-3l-4 2 1 3h-2v2l-1 2v1h-2l1-2 1-2 2-2h-2l2-2h-2l2-1v-3l1-1h2l-2-1 4-2h-1l1-1h-1l-1 1c-2 1-3 2-4 1l1 1c-1 1-4 2-5 1 2-1 0 2 3-1 1-2-5-1 0-3v1l1 1-1-1h3c1-1-5-1-4-2h3c1-1-2-2 1-3l2 1c2-1-1-2-1-2l2-1v-3c0-1-3-4-1-5l1 2c1-1 0-3 1-2l2 1-1-3h1v-2 1h3l-2-2h1v-1l1-2zm28-18v1l1 1h-1c1 1-1 1-1 1 0 1 1 2-1 4l1-4-1 1-1-2h2l1-2zm-12 17c-2 3-7-3-3-3l1 1-1 1 2 1h1zm-41 41h1l1-1h3l2 1h1v3c1 4 0-1 2 2l-3 3c2-1 4-2 3 2 0 3-3 1-3 2-1 1 0 2-2 2l-1-1h-3v-1l-1-1-1-3c-4 1 1 2-3 3l-5-5 4-1-1-2h3c1-1 0-3 3-3zm17-39l-2 2-1 3-1-1v2l-1-1-2 2-1-2h3l-2-1 1-1-1-1c1-2 2 0 3 0v-2h2l2-1v1zm2 51h-2l-1 1c-4 4 3 3 3-1zm97 95c0 1 2 1 1 2l-1 2 1 1v1l2 1 2 2 2-2c2 0 0 1 1 2h2s1 2 3 1l1-3h5l4-1-1 1c0 2 1 0 1 1v1h1c2 2 2 2 5 2l8 1 2 1h4l2-2v-1h6l1-1h3v-1l1-2 3-3s-2-2-1-3c0-2 2 0 2-2s-3-2-2-2l5-1v-4l-3-3c-1-2 2-4 0-5h-1l-2-1-1 1h-1l-8-2-1 1v-1h-2v3h-1l-1 2h-2c-2 1-3-1-5-2v1c0 3 0 2-2 2h-1v3c-1 0-5 1-5 3l2 3-1 2c1 1 2-1 1 2v1c-3-1-1-3-2-3l-2 1-1-1h-1l-1 1h-4l-1 1-1 1-4 1v-1h-1 1c-1-2-3 0-4-1v2l-2 2v-2l-1 1v-2l-1-1h-4z" class="eu europe" stroke="#fff"/>
    <path d="M257 288c1-5 4-1 7-4v-1l1-1 1-3c1-1 3-3 5-3l-1-2-1-1-1-2h-2l-2-1c-2 0 1 1-2 1l-1-1-1-1c1-1 2 0 1-2h-1v1h-2l-4-2c-1 0 2 2 1 3h-1l-1 1c-1 1-2-1-2-2l-2-1c0-1 3-2 1-3l-3 1v-1h-1l-1-1-4-1c-1-1 1-2-1-2-3 0 0 2-2 2l-1 1c-1 0-3-5-4-2l1 1-4 2-2 1-1 1h-1l-1 1h-1v2l-2-1-4 4v-1l-1-1 2 4 1 1c1 1-1 1-1 2l2 4 3 1 2 2 5 4c2 1 3 3 5 2h2l1-2h1v-3h2v1l1-1 8 2h1l1-1 2 1h1l1 1z" class="eu europe" stroke="#fff"/>
    <path d="M301 277l-1 3v2l-1 1v2l-2 1h-1c-2 0-1-2-3-2l-2 1c-2 1-4-1-5 1l-2 4-1-1c-1 1 1 2-2 2 0 1-2-2-3 0v1c-1 2-4 1-5 2v2c1 1-7 3-9 2l-4-3h-1l-3-3c-1-1 1-3 1-4 1-5 4-1 7-4v-1l1-1 1-3c1-1 3-3 5-3h1v1c1 1 3-4 4-3l1 2h1v2h3l2-3h2l2 1 2-1h-1l1-1h7v2h2l3 1z" class="eu europe" stroke="#fff"/>
    <path d="M253 310l3 5 7 5 2 1 2 1 7-1 1-1 3-2h1l3-2c2-2 0 0 2 0l2-1 2 1v-1l4-1s-2-1 0-1h2c2 0 1-4 2-5l2-4v-1l1-5h1c0-2 0-3 2-5l2-1 2-2-1-2h-2l-1-1h-1c-1-1 0-2-2-2l-2 1h-1c-2 0-1-2-3-2l-2 1c-2 1-4-1-5 1l-2 4-1-1c-1 1 1 2-2 2 0 1-2-2-3 0v1c-1 2-4 1-5 2v2c1 1-7 3-9 2l-4-3h-1v4l-5 1c-1 0 2 0 2 2s-2 0-2 2c-1 1 1 3 1 3l-3 3-1 1 1-1h1zm38-98l1-1 1 1 4 2v2c1 1 4-1 5-1l2 1 1-2h1v-2h2c2-1-1-1 0-2s3-2 3 0h2c1-2-2-1-2-2v-6c1-3 0 0 2-2v-3h3v-1l1-1h-3v-4h-1l-6-5-4 1-3-3-1 2c-1 2-1 0-2 0l-1 1h-7v1l-1-1-2 1h-4l-5 3v2h-1v4h1v1l1 3v1l1 1h1l4 1v1c2 0 3-2 4-1l1 1 2 1c0 1-2 3 0 6zm-14-15v4-4z" class="eu europe" stroke="#fff"/>
    <path d="M276 193h1v-2l5-3h4l2-1 1 1v-1h7l1-1c1 0 1 2 2 0l1-2 3 3 4-1 6 5c3 0 3-3 4-3h1l1-1h1l1-3 2-2c1-2-2-5-4-6v-2l-1 1v-3h-1c0-2 2-2-1-4h-1v-1h-5l-2 2-4-3v-1l-2 1v-1h-1l-2-1c0 2-1 0-1 0l-5 4c0 2 3 5 2 7 0 2-2 4-4 4h-1l-2-1-1-3-4-2-1-2-2 2-3 2c-2 2 0 5-1 7l-2 2v4h1c-1 1 0 4 1 5z" class="eu europe" stroke="#fff"/>
    <path d="M364 330h-5l-1-2-1 1c-2 1 1-1-2-1l-2 1c-1 0 0-2-4 0l-7 3-4 5h-5l-4 1-2 1h-13c-2 0 2-2 1-3-1 0-6-1-6-4l3-1c-10-5-1 0-5 2l-2-2h-3l-1-1c0-1-4 1-2-1l2-1h-2c0-1 2-2 1-3-2-1-6 0-7-2v-4l-1 1-1-2-2-1-1-1v-1l4-1s-2-1 0-1h2c2 0 1-4 2-5l2-4v-1l1-5h1c0-2 0-3 2-5l2-1 2-2 1-2 1-1 3 1h6l2-1 4 2c1 1 2-2 2-2 2-2 6-2 7-3 3-3-1-1 1-3l2-1v-1 1h3l4 6c3 2 10 7 11 10v8l2 4-1 1h1l1 1h1v1h5s-2 0-1-1h2l2-2c2-1 3 0 4 2l1 4-4 2-1 2s1-4-1-4l-1 1 1 2-1 1h2-1 1l-2 5 1 7z" stroke="#fff"/>
    <path d="M350 359h-1c-4 0 2 3 0 5l-3 1-5 2v-1l-4-1v1h-2l-1-2-2 1h-1l-5 3h-3l-1 1h-2a34 34 0 0 0 0-5l-3-3h-2l-2-2 1-2-1-1v-2l-1-1c3-5 0 1 3-2l2-4-5-2c-1-1-3-5-2-7l2-1v-2l3 1c1 1-3 3-1 3h13l2-1 4-1h5l4-5 7-3c4-2 3 0 4 0l2-1c3 0 0 2 2 1l1-1 1 2h5v4h-1c-4 1-1 1-2 3l-1 1 1 4v2h-2 1l-1 1v1l-1 1c-2 3 2-1 3 2l3 2v1h-2l-2 2c-2-1-2-2-5-1l-1 2h-2l-1 2c0 1-2 0-1 2zm-57-191l5-4s1 2 1 0l2 1h1v1l2-1v1l4 3 2-2h3v-2h1v-2c1-1 1 1 1-1h-1v-2l-2-1v-2l-2-5 1-3v-4c1-2 3-1 0-2v1l-12 1v-1c-2 1 2 2-1 1l-1-1v1l-2 2h-3s0-1 0 0v1c-1 0-4 0-5 2l1 1-4 1c-1 4 1 2 2 3l-1 3 2 2 1 3h2l1 1c1-1 1-4 3-2l-1 1v5zm-10-7l2 1c1 0-1-1 0 0h-1v2l-1-1v1l-2 1v1h-2v3l-1 1c-1-1 1-2 1-3h-1l-2-1 1-1-1-2 2 1v-2l1 1c0-3 2-2 4-2zm-4-6h1v1h2c3 2 0 1 0 2l-2 2c-1 1-1-2-1-2h-3l2-1 1-2z" class="eu europe" stroke="#fff"/>
    <path d="M221 348h1c1-1 0 2-1 0z" class="europe" stroke="#fff"/>
    <path d="M171 280h-3l-1-1c2 0-1-4-1-5 1-1 2-4 4-2v1c0 2 2 2 2 3 2 1-2 2-1 4z" class="eu europe" stroke="#fff"/>
    <path d="M142 258c1 1 1 5 3 5 1 0 1-2 2-1l1 3 3 1-1 2c1 0 4-1 5 1l-1 2v1c0 1 3 2 4 1s1-3 2-2l-1 1v1l1 1-1 1 2 1 1 1h1s-1 0 0 0v1l1 1h3l1 1h4l2 4c1 1-1-3 2 0v1l4-1v1l6 2-4 4v3l-2 3v7c-4 3-2 0-5 0v1l-1 1h2l-1 1-3 3-2 1v2l-3 2v4l-1 1v1l3-2h-1v-1l5-1v5h1l1 2c-5 2-2 1-1 3v2l2 1-3 3h-2c-1 2 2 3 3 4v2h-1l-1 2 1 1 3 3h3c2 1-1 3-1 5l-2 1h-1l-1 2h-1l-1 1h-1l-1 1-1 1 1 1h-2l-3 1-2-1v1h-1l-1-1h-1l-2-1v-2l-1 1-2-1 2-1-1-1v1l-2 1c-2 0-1-3-1-2-2 1 1 2 0 2-3 1-1-1-1-1l-4-1c-1 0-2-2-3-1l-3 3c-1 0-3 0-4 2v1l-1 2v4l2 1h-5l-1 1-3-2-2 1-1-1-2-1c1-1 1-3-2-2l-1-1-1-1h-1l-3-2c-2 0-1 2-1 2l-3-1v1l-2-1h-1l-2-1-3-1-2-2c-1-1-3 0-4-2v-1l-1 1c-2 0 1-1 0-2l-1-1-2-1 1-1c3-1 4-10 5-13l1-1h1v-1l-1 1v-3l3-8 2 3v3l1 2v1l1-1-1-1-1-5-2-2-1-2 2 1-1-2 1-2-1-2 1-2h-1v1l-1-2h-1v-1c-2-1-1 2-3-1v-3h-1l-1-2 2-2-2-1v-2c-4 0 0-1 0-3l-4-1 1-1h-3c0-1 1-3-1-3l-2 1-2-2h-1c-1-1 0-2-2-2v1h-2v-2l-2-1v-1h3v1l-1-3h3-2c-1-1 1-1 1-1 0-1-6 3-4-2l4-1h3l1 1 1-1 1 1 1-2h3v2l1-1 2 4 2-1 1-1c1 1 0 4 3 3v-2l2 1h1l2 1-2-3 1-2v-1l1-2h-1v-2h-1v-5 1l2 1h3v1h-1l1 3h1l5 1 1 1c2 1 2-1 3-1h2c-1 0-2-1-1-3s7-2 9-3l2-1 2-1-1-1v-2l1-5 4-2h3zm53 102v4l1 1-1-1 1 2v3l-1 4-1 4h-1 1l-1 1v2c-2 1-1-1-1-1l-3-1v-1l-1-2 1-2h-2l2-1-2-2 1-1-1-2h1v-2h1l1-1h1l1-1 2 1v-2l1-2zm-22-8l2-1-2-2-1 2 1 1c1 0 0 0 0 0zm-7-117l-2 1c-1 4 3 2 2 3l-3 1 1 2-1 1 1 1s3-4 4-3v-1l1-2-3-1 1-2h-1s-1 1 0 0l-2 1h-3l-1 6-3 4-1 2h-1v2c-1 1-4 0-3 1l2 1h1l1 1h-2c0 1 3 0 2 1-1 2-2-1-3-2l-3 1 3 2 1-1 1 1h1v1h1c1 0-1-2 1-2v1c1 1 2-1 2-1v1h2l1 2c2 1 4 0 5 2v1l-1 1v1c-1 3 1 2 2 2v-1h1c0-2-3-3-2-3l1 1 1-2v-1l1-1c1-3-1-4-2-5v-1h2v-1l2 1 3-2c0-1-2 0-1-1 2-1 3-1 3-4 0-1-4 0-3-2h1v-1h2v-2l2-5c-2 1-2-3-4-3-1 0-9 1-9 3l-1 1zm-17 20c0 2 2 1 3 1v1c2 1 2 0 3-1l-1-1-1 1c-2 0-1-1-2-2l-2 1zm107 60l-3-1v2h-1v1l-4 2c-1 1 2 3 1 4-3 3-1-1-3 2l1 1h-1v2h-4l-2-1v-1l-1 2h-4v1h-4l1-2c4 1 0-2-1-2v-2c0-1-1 1-1-1 0-1 2-1 1-2l-2-1c0-2 2-1 3-3h-1 2l2 1h4l2-2v-1h6l1-1h3v-1c-1-1 1-2 2-2l3 5zm-60-100l-4-1h-2v-2l1-1v-2l-1-2-3-1v-4h1c2 2 1-2 0-2v-1l-1 1v-4h1v-4l1 1c0 2 4-3 5-3 2 0-1 3 0 3h2-1v-1h-1l1-1c0-2-1-1 1-3h1v1l1-1h4v4h-1s2 0 1 1l1 1c1 0 3-1 4 1l-3 4-2-2-1 5c0 2-1 2-2 2h-2l2 1 1 1c1 0 2-2 3-1l1 1 1-1c2 3 0 0 0 2 1 1 3 5-1 5l-2-1h-1c-1-1 2 0 0-1s0 1 0 1l-1-3-2-2h-1c-1 1 1 0 1 1l-1 1v1l1 1-2 2h1l1 2-1-1-1 2zm-93-95v2-2zm1-9c-1 2 1-1 1 1l1 1-1 1v-1c0-1-3-2-1-2zm110 88h4v1l-1 1c0 2 2 2 1 4l-2 1 1 1 1 2-3 1c0 1 2 2 0 2l-3-1 1 1v-2h-1l-1-1-2 1v-1c1-1-1-1-1-1l1-1c0-3-1-2-2-3v-1s5 1 4-2l-2-1h3c1 0 3 0 3 3l-1 1c2 1 1-2 1-3l-2-1 1-1zm2 15h-1v1h-1v1h-2l-1 1-2-1-1-1 1-2 5 2-2-2h1l3 1zm-29-13zm17-18c0 1-1 6-3 5l-1-1h-3l-2 1h-3v1c-2 0 0-3-2 2v2c-3 0-1-6 1-6l5-1 4-5h2l2-2-1 2 1 2zm8 32l1 1-1-1z" class="eu europe" stroke="#fff"/>
  </g>
  <path class="eu europe" d="M247 445h-1 1zm2 4z" fill="#a8d3e8" stroke="#a8d3e8"/>
  <path fill="none" stroke-width="8" stroke-linejoin="round" d="M-1 1h452v448H-1z"/>
</svg>
