<svg version="1" xmlns="http://www.w3.org/2000/svg" width="749.333" height="749.333" viewBox="0 0 562.000000 562.000000"><path d="M39 3.9c0 .5-.8 1.1-1.7 1.5-1 .3-3.4 1.5-5.3 2.7C18.4 16.3 2.8 25 1.5 25 .2 25 0 45.4 0 210.7l.1 185.8 20.7 11.8c11.4 6.5 20.8 11.3 21 10.7.3-.8 8.5-5.8 24.5-14.9 2.3-1.2 6.6-3.7 9.5-5.4l5.2-3.1V258.1l11.3 6.6c12.4 7.3 15.9 9.3 21.5 12.4 6.8 3.8 6.6 3.2 6.2 23.7-.1 4.1 0 7.6.3 7.8.3.3.1 2.1-.3 4-.4 1.8-.4 3.4 0 3.4.5 0 .5 1.2.2 2.7-1.6 6.2-.6 7.9 8.1 12.9 4.5 2.6 9 5.4 9.9 6.2 1 .8 1.8 1.2 1.8.9 0-.4 3.2 1.3 7 3.8 3.9 2.5 7 4.3 7 4 0-.2 1.6.7 3.6 2 3.5 2.4 3.7 2.4 5.3.6 1.8-2 15.4-10.1 16.9-10.1.6 0 1.2-.4 1.4-.8.3-.8 7.2-4.9 16.3-9.7 2.2-1.1 5.8-3.2 7.9-4.5 2.2-1.4 6.3-3.9 9.2-5.5 2.9-1.7 9-5.1 13.5-7.8 4.5-2.6 8.6-4.7 9-4.7.5 0 .9-.5.9-1.2 0-.8.3-.9 1-.2.6.6 1.1 5.8 1 12 0 12.4.1 29.4.1 30.9.1.5 0 3.2 0 6-.1 2.7-.2 8.9-.1 13.7v14.5c-.1 3.2-.1 8.5-.1 11.8V413c.1 5.8.1 14.8.1 20 .1 5.2.1 9.9.1 10.5.1.5 0 3.2 0 6-.1 2.7-.2 8.9-.1 13.7v14.5c-.1 7.1-.1 17.1-.1 19.8V509c-.1 5.2-.1 10.2 0 11 0 .8 0 4.5.1 8.1l.1 6.6 7 4.1c3.8 2.3 7.4 4.2 7.9 4.2.6 0 1 .3 1 .8 0 .4 1.2 1.3 2.8 1.9 1.5.7 7.1 3.9 12.6 7.2l9.9 5.9 4.2-2.9c2.4-1.6 4.6-2.9 5-2.9.4 0 1.9-.8 3.3-1.9 1.5-1 5-3.1 7.7-4.6 6.7-3.7 8-4.5 14.8-8.4l5.7-3.3v-46.5l2.8-1.4c1.5-.8 2.9-1.6 3.2-1.9.3-.3 2.1-1.3 4-2.4 7.4-4 12.6-7 15.1-8.7 1.4-1 2.9-1.6 3.3-1.2.3.3.6.2.6-.3s2.5-2.2 5.5-3.9l5.5-2.9v-46.3l15.8-9.1c8.6-5 17.6-10.2 20-11.6l4.3-2.6v-16.7c0-9.3-.1-19.4-.1-22.6-.1-3.3.3-5.7.9-5.7.6 0 3.3 1.4 5.9 3 2.7 1.7 5.2 3 5.6 3 .4 0 2.7 1.3 5.1 3 2.4 1.6 4.6 3 5 3 .3 0 3.1 1.6 6.1 3.5 3 1.9 5.9 3.5 6.4 3.5s1.5.9 2.3 2c.8 1.1 1.6 1.7 1.9 1.4.7-.6 36.7 20 38.3 21.9.6.7 1.9 1.4 3 1.5 1.1.2 2.7 1 3.6 1.8.8.8 1.8 1.4 2.1 1.4 1.2 0 30.4 17.3 31.4 18.6 1 1.2 2.4.7 9.5-3.5 9.6-5.6 16.5-9.6 26.1-14.9l6.8-3.7V210.7C562 48 561.8 25 560.5 25c-.8 0-2.9-.8-4.7-1.9-1.8-1-8.9-5.1-15.8-9.1s-14-8.1-15.7-9.1L521 3l-9.7 5.6c-5.4 3.1-14.4 8.3-20.1 11.6l-10.2 6v229.9l-2.1-.6c-1.2-.4-7.1-3.7-13.3-7.4-6.1-3.6-11.3-6.7-11.6-6.8-1.5-.4-7.6-4.1-10-6.1-1.5-1.2-3.4-2.2-4.1-2.2-.8 0-2.5-.9-3.9-2s-2.8-2-3.2-2c-.3 0-5.2-2.7-10.8-6-5.6-3.3-10.3-6-10.5-6-.2 0-2.6-1.4-5.4-3.1l-5-3.1-19.8 11.4-19.8 11.5-.3 22.9c-.2 16.3-.6 23.2-1.5 24-1.4 1.3-36.3 21.4-37.1 21.4-.3 0-.6-31.3-.6-69.5 0-56.8-.2-69.3-1.3-68.9-.7.2-2.9-.6-4.8-1.8-1.9-1.3-5-3.2-6.9-4.1-3.5-1.8-5.4-2.8-10-5.8-1.4-.9-5.2-3.1-8.5-4.9-3.3-1.8-6.8-3.8-7.7-4.4-1.3-.7-2.9-.3-7 1.8-2.9 1.6-6 3.5-6.9 4.2-.8.8-1.8 1.4-2.1 1.4-.4 0-5.1 2.6-10.5 5.8-5.4 3.1-11.9 6.8-14.5 8.1-2.7 1.3-4.8 2.8-4.8 3.3 0 .4-.4.8-.9.8s-8.3 4.3-17.3 9.5c-8.9 5.2-16.9 9.5-17.5 9.5-.7 0-1.3.4-1.3.8 0 .5-1.8 1.7-4 2.7-2.2 1-4 2.2-4 2.7 0 .4-.4.8-.9.8-.6 0-5.2 2.5-10.4 5.5-5.1 3-9.9 5.5-10.5 5.5-.7 0-1.2.4-1.2.8 0 .7-6.3 4.2-7.5 4.2-.3 0-.5-10.2-.5-22.8v-22.7l-12.2-7c-6.7-3.9-14.2-8.2-16.7-9.6-2.5-1.4-6.1-3.4-7.8-4.5l-3.3-1.9v-22.3-23c-.1-1-10.1-7.2-11.7-7.2-.7 0-1.3-.4-1.3-.9s-.8-1.1-1.7-1.4c-1-.4-4-2-6.8-3.6-2.7-1.7-8-4.8-11.7-6.8L81 72.5V49.2c0-22.5-.1-23.4-2-23.9-1.1-.3-2-.9-2-1.4 0-.5-.4-.9-.9-.9s-4.8-2.4-9.7-5.3C61.5 14.8 55 11.1 52 9.4c-3-1.6-5.7-3.1-6-3.4-1-1-5-3-6-3-.5 0-1 .4-1 .9z"/></svg>